<?xml version="1.0" encoding="utf-8"?>
<!-- Generator: Adobe Illustrator 16.0.0, SVG Export Plug-In . SVG Version: 6.00 Build 0)  -->
<!DOCTYPE svg PUBLIC "-//W3C//DTD SVG 1.1//EN" "http://www.w3.org/Graphics/SVG/1.1/DTD/svg11.dtd">
<svg version="1.1" id="Layer_1" xmlns="http://www.w3.org/2000/svg" xmlns:xlink="http://www.w3.org/1999/xlink" x="0px" y="0px"
	 width="333.127px" height="94.804px" viewBox="0 0 333.127 94.804" enable-background="new 0 0 333.127 94.804"
	 xml:space="preserve">
<g>
	<path fill-rule="evenodd" clip-rule="evenodd" fill="#00984A" d="M120.842,33.666V11.858h6.532c8.241,0,11.959,4.724,11.959,10.552
		c0,5.326-3.316,11.255-11.959,11.255H120.842L120.842,33.666z M106.572,0.804V71.15h14.27V44.72h9.146
		c17.989,0,24.42-12.662,24.42-21.908c0-4.422-1.507-22.008-27.033-22.008H106.572L106.572,0.804z"/>
	<polygon fill-rule="evenodd" clip-rule="evenodd" fill="#00984A" points="202.041,0.804 202.041,13.265 174.305,13.265 
		174.305,29.144 199.529,29.144 199.529,40.701 174.305,40.701 174.305,58.689 202.041,58.689 202.041,71.15 160.035,71.15 
		160.035,0.804 202.041,0.804 	"/>
	<path fill-rule="evenodd" clip-rule="evenodd" fill="#00984A" d="M260.931,68.939c-6.23,2.111-12.562,3.016-18.189,3.016
		c-17.486,0-36.58-9.949-36.58-35.575C206.161,12.16,223.245,0,245.354,0c5.527,0,10.251,0.704,15.577,2.412l-0.604,12.059
		c-4.12-1.608-8.643-2.613-13.969-2.613c-15.777,0-25.123,9.949-25.123,24.32c0,16.983,11.456,23.918,24.118,23.918
		c6.23,0,11.155-1.508,14.673-3.115L260.931,68.939L260.931,68.939z"/>
	<path fill-rule="evenodd" clip-rule="evenodd" fill="#00984A" d="M298.657,10.05c5.326,0,19.396,2.11,19.396,25.928
		c0,23.817-14.069,25.927-19.396,25.927s-19.396-2.11-19.396-25.927C279.262,12.16,293.331,10.05,298.657,10.05L298.657,10.05z
		 M298.657,0c-17.386,0-34.47,10.452-34.47,35.978c0,25.525,17.084,35.977,34.47,35.977s34.47-10.452,34.47-35.977
		C333.127,10.452,316.043,0,298.657,0L298.657,0z"/>
	<polygon fill-rule="evenodd" clip-rule="evenodd" fill="#00984A" points="114.643,81.417 114.643,83.788 109.166,83.788 
		109.166,94.804 106.466,94.804 106.466,81.417 114.643,81.417 	"/>
	<path fill-rule="evenodd" clip-rule="evenodd" fill="#00984A" d="M137.729,89.583l1.845-5.471h0.038l1.958,5.471H137.729
		L137.729,89.583z M138.166,81.417l-5.306,13.388h2.891l1.122-3.003h5.496l1.122,3.003h3.042l-5.287-13.388H138.166L138.166,81.417z
		"/>
	<path fill-rule="evenodd" clip-rule="evenodd" fill="#00984A" d="M168.593,87.67v-4.15h1.235c1.56,0,2.264,0.899,2.264,2.009
		c0,1.014-0.628,2.142-2.264,2.142H168.593L168.593,87.67z M165.892,81.417v13.388h2.701v-5.029h1.729
		c3.404,0,4.622-2.41,4.622-4.17c0-0.842-0.286-4.188-5.116-4.188H165.892L165.892,81.417z"/>
	<path fill-rule="evenodd" clip-rule="evenodd" fill="#00984A" d="M198.601,89.583l1.844-5.471h0.038l1.959,5.471H198.601
		L198.601,89.583z M199.038,81.417l-5.306,13.388h2.89l1.122-3.003h5.496l1.122,3.003h3.043l-5.287-13.388H199.038L199.038,81.417z"
		/>
	<polygon fill-rule="evenodd" clip-rule="evenodd" fill="#00984A" points="229.464,81.417 229.464,86.81 234.864,86.81 
		234.864,81.417 237.564,81.417 237.564,94.804 234.864,94.804 234.864,89.009 229.464,89.009 229.464,94.804 226.764,94.804 
		226.764,81.417 229.464,81.417 	"/>
	<polygon fill-rule="evenodd" clip-rule="evenodd" fill="#00984A" points="267.307,81.417 267.307,83.788 263.465,83.788 
		263.465,94.804 260.765,94.804 260.765,83.788 256.924,83.788 256.924,81.417 267.307,81.417 	"/>
	<polygon fill-rule="evenodd" clip-rule="evenodd" fill="#00984A" points="289.365,81.417 289.365,88.301 289.309,91.553 
		289.365,91.553 290.316,89.602 294.976,81.417 298.208,81.417 298.208,94.804 295.508,94.804 295.508,87.9 295.564,84.667 
		295.508,84.667 294.595,86.695 289.897,94.804 286.665,94.804 286.665,81.417 289.365,81.417 	"/>
	<path fill-rule="evenodd" clip-rule="evenodd" fill="#00984A" d="M325.383,87.728h-1.521c-0.343,0-2.51-0.02-2.51-2.104
		c0-0.727,0.284-2.104,2.491-2.104h1.54V87.728L325.383,87.728z M328.083,81.417h-4.316c-0.932,0-5.269-0.058-5.269,4.131
		c0,2.486,1.579,3.424,2.625,3.749l-3.176,5.508h3.232l2.587-4.973h1.616v4.973h2.7V81.417L328.083,81.417z"/>
	<path fill="#00984A" d="M51.88,47.633V13.637c-6.222,1.383-11.375,3.742-15.53,7.014c-5.293,4.168-9.074,9.904-11.483,17.056
		l-9.572-3.204c3.049-9.054,7.923-16.382,14.806-21.803C36.923,7.327,45.615,3.911,56.35,2.637l5.657-0.671v45.667H51.88
		L51.88,47.633z"/>
	<path fill="#00984A" d="M45.257,41.909H11.671c1.383,6.223,3.742,11.375,7.015,15.53c4.169,5.293,9.904,9.074,17.057,11.483
		l-3.204,9.572c-9.055-3.05-16.382-7.924-21.804-14.807C5.361,56.866,1.945,48.173,0.671,37.439L0,31.782h45.257V41.909
		L45.257,41.909z"/>
	<path fill="#00984A" d="M39.944,48.578V82.12c6.222-1.383,11.375-3.744,15.529-7.016c5.293-4.169,9.074-9.904,11.483-17.057
		l9.572,3.204c-3.049,9.054-7.922,16.382-14.806,21.803c-6.823,5.373-15.515,8.79-26.249,10.063l-5.657,0.672V48.578H39.944
		L39.944,48.578z"/>
	<path fill="#00984A" d="M46.891,53.845h33.263c-1.382-6.221-3.744-11.375-7.016-15.529c-4.169-5.293-9.904-9.074-17.057-11.483
		l3.204-9.572c9.054,3.05,16.383,7.923,21.804,14.807c5.373,6.822,8.79,15.514,10.063,26.249l0.671,5.656H46.891V53.845
		L46.891,53.845z"/>
</g>
</svg>
